HIERARCHY
ROOT Hips
{
	OFFSET 0.000000 0.000000 0.000000
	CHANNELS 6 Xposition Yposition Zposition Xrotation Yrotation Zrotation
	JOINT LeftUpLeg_virtual
	{
		OFFSET 0.000000 0.000000 0.000000
		CHANNELS 3 Xrotation Yrotation Zrotation
		JOINT LeftUpLeg
		{
			OFFSET 11.394100 -6.187798 -0.413800
			CHANNELS 3 Xrotation Yrotation Zrotation
			JOINT LeftLeg
			{
				OFFSET 0.430247 -32.302673 3.732800
				CHANNELS 3 Xrotation Yrotation Zrotation
				JOINT LeftFoot
				{
					OFFSET -0.430247 -48.264931 -6.423300
					CHANNELS 3 Xrotation Yrotation Zrotation
					JOINT LeftToeBase
					{
						OFFSET 4.230900 -16.068199 23.438400
						CHANNELS 3 Xrotation Yrotation Zrotation
						JOINT LeftToe_End
						{
							OFFSET 4.510700 0.695400 19.974600
							CHANNELS 3 Xrotation Yrotation Zrotation
							End Site
							{
								OFFSET 0 0 0
							}
						}
					}
				}
			}
		}
	}
	JOINT RightUpLeg_virtual
	{
		OFFSET 0.000000 0.000000 0.000000
		CHANNELS 3 Xrotation Yrotation Zrotation
		JOINT RightUpLeg
		{
			OFFSET -11.333700 -6.187798 -0.413800
			CHANNELS 3 Xrotation Yrotation Zrotation
			JOINT RightLeg
			{
				OFFSET -0.430392 -32.302628 3.733000
				CHANNELS 3 Xrotation Yrotation Zrotation
				JOINT RightFoot
				{
					OFFSET 0.430392 -48.264973 -6.423500
					CHANNELS 3 Xrotation Yrotation Zrotation
					JOINT RightToeBase
					{
						OFFSET -4.230900 -16.068199 23.438400
						CHANNELS 3 Xrotation Yrotation Zrotation
						JOINT RightToe_End
						{
							OFFSET -4.510700 0.695400 19.974600
							CHANNELS 3 Xrotation Yrotation Zrotation
							End Site
							{
								OFFSET 0 0 0
							}
						}
					}
				}
			}
		}
	}
	JOINT Spine_virtual
	{
		OFFSET 0.000000 0.000000 0.000000
		CHANNELS 3 Xrotation Yrotation Zrotation
		JOINT Spine
		{
			OFFSET -0.002400 12.777504 0.315300
			CHANNELS 3 Xrotation Yrotation Zrotation
			JOINT Spine1
			{
				OFFSET -0.002067 5.816869 0.032633
				CHANNELS 3 Xrotation Yrotation Zrotation
				JOINT Spine1_split
				{
					OFFSET -0.002067 5.816869 0.032633
					CHANNELS 3 Xrotation Yrotation Zrotation
					JOINT Spine2
					{
						OFFSET -0.002067 5.816869 0.032633
						CHANNELS 3 Xrotation Yrotation Zrotation
						JOINT Neck_virtual
						{
							OFFSET 0.000000 0.000000 0.000000
							CHANNELS 3 Xrotation Yrotation Zrotation
							JOINT Neck
							{
								OFFSET -0.003700 21.199493 -0.826900
								CHANNELS 3 Xrotation Yrotation Zrotation
								JOINT Head
								{
									OFFSET 0.000000 20.442200 4.834800
									CHANNELS 3 Xrotation Yrotation Zrotation
									JOINT HeadTop_End
									{
										OFFSET 0.000000 34.668396 4.968400
										CHANNELS 3 Xrotation Yrotation Zrotation
										End Site
										{
											OFFSET 0 0 0
										}
									}
								}
							}
						}
						JOINT LeftShoulder_virtual
						{
							OFFSET 0.000000 0.000000 0.000000
							CHANNELS 3 Xrotation Yrotation Zrotation
							JOINT LeftShoulder
							{
								OFFSET 3.288150 8.794197 -1.372250
								CHANNELS 3 Xrotation Yrotation Zrotation
								JOINT LeftShoulder_split
								{
									OFFSET 3.288150 8.794197 -1.372250
									CHANNELS 3 Xrotation Yrotation Zrotation
									JOINT LeftArm
									{
										OFFSET 11.953299 -2.279007 -0.146200
										CHANNELS 3 Xrotation Yrotation Zrotation
										JOINT LeftForeArm
										{
											OFFSET 18.448900 0.000000 0.000000
											CHANNELS 3 Xrotation Yrotation Zrotation
											JOINT LeftHand
											{
												OFFSET 29.527798 0.000000 0.000000
												CHANNELS 3 Xrotation Yrotation Zrotation
												End Site
												{
													OFFSET 0 0 0
												}
											}
										}
									}
								}
							}
						}
						JOINT RightShoulder_virtual
						{
							OFFSET 0.000000 0.000000 0.000000
							CHANNELS 3 Xrotation Yrotation Zrotation
							JOINT RightShoulder
							{
								OFFSET -3.249400 8.794197 -1.372250
								CHANNELS 3 Xrotation Yrotation Zrotation
								JOINT RightShoulder_split
								{
									OFFSET -3.249400 8.794197 -1.372250
									CHANNELS 3 Xrotation Yrotation Zrotation
									JOINT RightArm
									{
										OFFSET -11.953299 -2.279007 -0.146200
										CHANNELS 3 Xrotation Yrotation Zrotation
										JOINT RightForeArm
										{
											OFFSET -18.448900 0.000000 0.000000
											CHANNELS 3 Xrotation Yrotation Zrotation
											JOINT RightHand
											{
												OFFSET -29.527802 0.000000 0.000000
												CHANNELS 3 Xrotation Yrotation Zrotation
												End Site
												{
													OFFSET 0 0 0
												}
											}
										}
									}
								}
							}
						}
					}
				}
			}
		}
	}
}
MOTION
Frames: 5
Frame Time: 0.03333333
-0.216426 221.980301 -0.065166 0.000000 0.000000 0.000000 -5.133887 5.935177 7.431531 -20.313585 17.716182 9.010805 11.264374 -3.271620 1.926604 -6.730866 -1.125144 0.308252 -2.348868 -0.501653 -2.695577 0.000000 0.000000 0.000000 -3.159132 2.834555 6.612005 -10.988690 -4.144024 -5.230056 12.923387 1.010371 -3.642589 -13.879395 -2.946967 1.726229 -11.319543 -0.476592 -5.748302 0.000000 0.000000 0.000000 -0.957018 3.436181 5.941462 2.030009 -1.080668 2.063140 10.612075 -0.735757 3.616797 1.278200 1.636370 0.183448 0.000000 0.000000 0.000000 9.549653 -0.962999 3.177420 0.229396 0.421238 -4.388654 8.079756 8.458884 -8.191916 0.000000 0.000000 0.000000 10.841518 -0.977735 2.796891 0.313426 15.956977 -9.262021 -0.785062 -1.828830 -0.481753 2.026761 -12.661085 -60.195953 -0.498140 -48.345103 0.449844 0.000000 0.000000 0.000000 11.256526 -0.446252 3.285078 2.331572 2.703506 7.630818 0.853726 0.959117 -1.377219 -1.891625 7.820499 56.983319 1.510752 38.547945 -1.516128 0.000000 0.000000 0.000000 
-0.402183 221.958084 -0.233768 0.000000 0.000000 0.000000 -5.007247 6.208453 7.388529 -20.400669 17.422721 9.103455 11.363542 -2.696692 2.110916 -6.958915 -0.719328 0.642992 -2.313452 -0.488245 -3.028344 0.000000 0.000000 0.000000 -2.965441 3.046287 6.437278 -11.081841 -4.338945 -5.141810 12.473846 0.825321 -3.614708 -13.864804 -3.134949 1.483879 -11.428169 -0.557172 -5.551395 0.000000 0.000000 0.000000 -0.783305 3.117992 6.007204 1.986024 -1.117523 2.027229 10.646513 -0.735524 3.544347 0.875853 1.566810 -0.029195 0.000000 0.000000 0.000000 9.536889 -0.961340 3.127665 -0.258932 0.372181 -4.546900 8.141765 8.143921 -8.019491 0.000000 0.000000 0.000000 10.846241 -0.942789 2.720017 0.313248 15.825782 -8.810409 -1.211599 -1.246423 -0.705702 1.434088 -12.771468 -60.154043 -0.596316 -48.363938 0.275487 0.000000 0.000000 0.000000 11.307393 -0.479643 3.194860 2.263634 2.586524 7.559578 0.651184 0.820076 -1.291159 -1.972436 7.931494 56.820579 1.425155 40.113114 -1.355417 0.000000 0.000000 0.000000 
-0.611319 221.629623 -0.466625 0.000000 0.000000 0.000000 -4.617034 6.465150 7.177962 -20.804958 17.144781 9.299350 11.793597 -1.858346 2.323057 -7.682164 -0.029544 1.171730 -2.624114 -0.485330 -2.926512 0.000000 0.000000 0.000000 -2.468049 3.105755 6.195757 -11.695689 -4.525988 -5.111680 13.045181 0.669983 -3.505722 -14.626024 -3.255399 1.416364 -11.710726 -0.612107 -5.395558 0.000000 0.000000 0.000000 -0.237890 2.791721 6.007376 1.964462 -0.989898 2.027621 10.684775 -0.719287 3.437387 0.651138 1.276255 -0.169703 0.000000 0.000000 0.000000 9.576330 -0.933057 3.044189 -1.023011 0.391764 -4.769395 7.638143 7.556706 -7.510619 0.000000 0.000000 0.000000 10.754637 -0.891076 2.633493 0.246100 15.552628 -8.066719 -1.567572 -0.884990 -0.946589 0.871709 -13.028216 -60.045286 -0.389350 -48.878463 0.243934 0.000000 0.000000 0.000000 11.333217 -0.496197 3.077394 2.200020 2.535390 7.235302 0.385285 0.381299 -1.113324 -1.304779 9.156957 56.209633 1.419264 42.341927 -1.222341 0.000000 0.000000 0.000000 
-0.784834 221.037384 -0.814915 0.000000 0.000000 0.000000 -4.077368 6.730653 6.840567 -21.682478 16.831396 9.438542 12.675914 -1.003799 2.519474 -8.671729 0.676948 1.618592 -3.099785 -0.496836 -2.379365 0.000000 0.000000 0.000000 -1.812194 3.219459 5.907004 -12.649325 -4.543506 -5.151052 14.244708 0.538628 -3.377860 -16.282140 -3.294079 1.525390 -11.832434 -0.629452 -5.418731 0.000000 0.000000 0.000000 0.615207 2.611207 5.920316 1.989815 -0.767808 2.070272 10.751665 -0.737210 3.330882 0.617248 0.902129 -0.326583 0.000000 0.000000 0.000000 9.688575 -0.930391 2.943432 -1.915551 0.457291 -4.979333 6.586528 6.825150 -6.747276 0.000000 0.000000 0.000000 10.635110 -0.874113 2.553240 0.130330 15.106159 -7.192865 -1.688645 -0.794012 -1.148592 0.222414 -13.363304 -59.759415 -0.021098 -49.636679 0.271503 0.000000 0.000000 0.000000 11.318487 -0.532917 2.961109 2.128723 2.646124 6.763593 0.233816 -0.156702 -0.973124 0.013769 11.305083 55.158968 1.502558 44.971554 -1.144931 0.000000 0.000000 0.000000 
-0.813359 220.314972 -1.253693 0.000000 0.000000 0.000000 -3.466418 7.143009 6.459149 -23.156375 16.449990 9.370395 14.150818 -0.387238 2.694999 -9.577037 1.201722 1.719091 -3.347000 -0.527932 -1.573472 0.000000 0.000000 0.000000 -1.161884 3.492629 5.625136 -13.618705 -4.289655 -5.233348 15.643896 0.337881 -3.269405 -18.601576 -3.279501 1.744436 -11.483445 -0.576813 -5.655268 0.000000 0.000000 0.000000 1.625423 2.697722 5.768381 2.077788 -0.569295 2.126096 10.869583 -0.844959 3.249100 0.642097 0.572918 -0.387708 0.000000 0.000000 0.000000 9.878801 -1.008888 2.863185 -2.723293 0.533373 -5.074197 5.142612 6.018490 -5.841876 0.000000 0.000000 0.000000 10.571659 -0.939842 2.492576 0.019477 14.486269 -6.336799 -1.434831 -0.719168 -1.238903 -0.397818 -13.767460 -59.122076 0.339391 -50.638179 0.290080 0.000000 0.000000 0.000000 11.291112 -0.641677 2.881576 2.038204 2.959517 6.226093 0.160194 -0.697169 -1.035108 1.892843 14.110236 53.600473 1.640267 47.928906 -1.125957 0.000000 0.000000 0.000000 
